<svg display="block" role="presentation" viewBox="0 0 24 24" xmlns="http://www.w3.org/2000/svg"><path d="M 17.07 2.93 L 15.66 4.34 C 17.1 5.79 18 7.79 18 10 C 18 14.42 14.42 18 10 18 C 5.58 18 2 14.42 2 10 C 2 5.92 5.05 2.56 9 2.07 L 9 4.09 C 6.16 4.57 4 7.03 4 10 C 4 13.31 6.69 16 10 16 C 13.31 16 16 13.31 16 10 C 16 8.34 15.33 6.84 14.24 5.76 L 12.83 7.17 C 13.55 7.9 14 8.9 14 10 C 14 12.21 12.21 14 10 14 C 7.79 14 6 12.21 6 10 C 6 8.14 7.28 6.59 9 6.14 L 9 8.28 C 8.4 8.63 8 9.26 8 10 C 8 11.1 8.9 12 10 12 C 11.1 12 12 11.1 12 10 C 12 9.26 11.6 8.62 11 8.28 L 11 0 L 10 0 C 4.48 0 0 4.48 0 10 C 0 15.52 4.48 20 10 20 C 15.52 20 20 15.52 20 10 C 20 7.24 18.88 4.74 17.07 2.93 Z" fill="var(--esondr, rgb(0,0,0))" height="20px" id="fSvlFbQfy" transform="translate(2 2)" width="20px"/></svg>